<svg data-v-fde0c5aa="" xmlns="http://www.w3.org/2000/svg" viewBox="0 0 300 300" class="iconAbove"><!----><defs data-v-fde0c5aa=""><linearGradient data-v-fde0c5aa="" gradientTransform="rotate(25)" id="6ca5750d-1bf3-4985-875f-3b91209ef612" x1="0%" y1="0%" x2="100%" y2="0%"><stop data-v-fde0c5aa="" offset="0%" stop-color="#0076DD" stop-opacity="1"></stop><stop data-v-fde0c5aa="" offset="100%" stop-color="#00CDE9" stop-opacity="1"></stop></linearGradient></defs><rect data-v-fde0c5aa="" fill="url(#6ca5750d-1bf3-4985-875f-3b91209ef612)" x="0" y="0" width="300px" height="300px" class="logo-background-square"></rect><defs data-v-fde0c5aa=""><!----></defs><g data-v-fde0c5aa="" id="689ce699-fc3e-4c52-8a60-29a07031dbbc" fill="#ffffff" transform="matrix(5.829725733454666,0,0,5.829725733454666,27.896403241457765,176.34343489097657)"><path d="M5.99 8.81L5.99 8.81Q5.99 8.75 6.52 8.96L6.52 8.96L6.52 8.96Q7.06 9.17 7.48 9.70L7.48 9.70L7.48 9.70Q7.91 10.23 7.91 11.20L7.91 11.20L7.91 11.20Q7.91 12.57 7.18 13.29L7.18 13.29L7.18 13.29Q6.45 14 5.17 14L5.17 14L0.97 14L0.97 4.20L4.45 4.20L4.45 4.20Q5.24 4.20 5.87 4.35L5.87 4.35L5.87 4.35Q6.50 4.49 6.96 5.03L6.96 5.03L6.96 5.03Q7.42 5.56 7.42 6.59L7.42 6.59L7.42 6.59Q7.42 7.49 7.11 7.98L7.11 7.98L7.11 7.98Q6.79 8.47 6.39 8.67L6.39 8.67L6.39 8.67Q5.99 8.86 5.99 8.81L5.99 8.81ZM3.46 6.15L3.46 7.97L3.79 7.97L3.79 7.97Q4.41 7.97 4.63 7.76L4.63 7.76L4.63 7.76Q4.84 7.55 4.84 7L4.84 7L4.84 7Q4.84 6.54 4.61 6.34L4.61 6.34L4.61 6.34Q4.37 6.15 3.74 6.15L3.74 6.15L3.46 6.15ZM4.23 12.05L4.23 12.05Q4.90 12.05 5.15 11.84L5.15 11.84L5.15 11.84Q5.40 11.62 5.40 10.99L5.40 10.99L5.40 10.99Q5.40 10.35 5.14 10.14L5.14 10.14L5.14 10.14Q4.87 9.93 4.23 9.93L4.23 9.93L3.46 9.93L3.46 12.05L4.23 12.05ZM16.63 11.94L16.63 11.94Q16.00 13.12 15.09 13.64L15.09 13.64L15.09 13.64Q14.17 14.15 12.87 14.15L12.87 14.15L12.87 14.15Q11.56 14.15 10.70 13.71L10.70 13.71L10.70 13.71Q9.83 13.26 9.36 12.15L9.36 12.15L9.36 12.15Q8.89 11.05 8.89 9.13L8.89 9.13L8.89 9.13Q8.89 7.21 9.36 6.11L9.36 6.11L9.36 6.11Q9.83 5.01 10.70 4.56L10.70 4.56L10.70 4.56Q11.56 4.12 12.87 4.12L12.87 4.12L12.87 4.12Q14.34 4.12 15.15 4.64L15.15 4.64L15.15 4.64Q15.96 5.17 16.52 6.22L16.52 6.22L14.35 7.43L14.35 7.43Q14.14 6.87 13.76 6.47L13.76 6.47L13.76 6.47Q13.38 6.08 12.87 6.08L12.87 6.08L12.87 6.08Q12.38 6.08 12.08 6.30L12.08 6.30L12.08 6.30Q11.79 6.52 11.63 7.19L11.63 7.19L11.63 7.19Q11.47 7.85 11.47 9.13L11.47 9.13L11.47 9.13Q11.47 10.42 11.63 11.08L11.63 11.08L11.63 11.08Q11.79 11.75 12.08 11.97L12.08 11.97L12.08 11.97Q12.38 12.19 12.87 12.19L12.87 12.19L12.87 12.19Q13.51 12.19 13.82 11.82L13.82 11.82L13.82 11.82Q14.13 11.44 14.22 11.14L14.22 11.14L14.22 11.14Q14.31 10.85 14.34 10.79L14.34 10.79L16.63 11.94ZM25.19 12.98L23.74 14.35L22.88 13.50L22.88 13.50Q22.02 14.15 20.86 14.15L20.86 14.15L20.86 14.15Q19.24 14.15 18.44 13.59L18.44 13.59L18.44 13.59Q17.64 13.02 17.64 11.86L17.64 11.86L17.64 11.86Q17.64 10.68 18.46 10.13L18.46 10.13L18.46 10.13Q19.28 9.58 21.14 9.58L21.14 9.58L21.80 9.58L21.80 9.58Q21.78 9.21 21.62 9.00L21.62 9.00L21.62 9.00Q21.45 8.78 21 8.78L21 8.78L21 8.78Q20.36 8.78 19.98 8.94L19.98 8.94L19.98 8.94Q19.60 9.10 19.31 9.42L19.31 9.42L17.82 8.01L17.82 8.01Q18.47 7.36 19.29 7.10L19.29 7.10L19.29 7.10Q20.10 6.83 21.17 6.83L21.17 6.83L21.17 6.83Q22.55 6.83 23.43 7.40L23.43 7.40L23.43 7.40Q24.30 7.97 24.30 9.03L24.30 9.03L24.30 12.10L25.19 12.98ZM20.05 11.82L20.05 11.82Q20.05 11.94 20.09 12.03L20.09 12.03L20.09 12.03Q20.13 12.11 20.36 12.18L20.36 12.18L20.36 12.18Q20.59 12.25 21.10 12.25L21.10 12.25L21.10 12.25Q21.52 12.25 21.80 12.10L21.80 12.10L21.80 11.14L21.62 11.14L21.62 11.14Q20.05 11.14 20.05 11.82L20.05 11.82ZM32.05 6.83L32.05 6.83Q32.73 6.83 33.01 6.93L33.01 6.93L33.01 6.93Q33.28 7.03 33.43 7.17L33.43 7.17L32.79 9.16L32.79 9.16Q32.75 9.07 32.43 8.95L32.43 8.95L32.43 8.95Q32.12 8.83 31.77 8.83L31.77 8.83L31.77 8.83Q31.26 8.83 30.93 8.88L30.93 8.88L30.93 8.88Q30.59 8.93 30.39 9.09L30.39 9.09L30.39 12.05L32.21 12.05L32.21 14L26.64 14L26.64 12.05L27.89 12.05L27.89 8.95L26.64 8.95L26.64 7L29.51 7L29.93 7.66L29.93 7.66Q30.31 7.27 30.85 7.05L30.85 7.05L30.85 7.05Q31.39 6.83 32.05 6.83L32.05 6.83ZM38.43 2.80L40.92 2.80L40.92 14L39.24 14L38.81 13.47L38.81 13.47Q38.16 14.15 37.34 14.15L37.34 14.15L37.34 14.15Q35.81 14.15 34.94 13.25L34.94 13.25L34.94 13.25Q34.08 12.35 34.08 10.49L34.08 10.49L34.08 10.49Q34.08 6.85 37.20 6.85L37.20 6.85L37.20 6.85Q37.87 6.85 38.43 7.24L38.43 7.24L38.43 2.80ZM37.80 12.19L37.80 12.19Q38.21 12.19 38.43 11.94L38.43 11.94L38.43 9.20L38.43 9.20Q38.15 8.81 37.66 8.81L37.66 8.81L37.66 8.81Q37.04 8.81 36.81 9.23L36.81 9.23L36.81 9.23Q36.57 9.66 36.57 10.49L36.57 10.49L36.57 10.49Q36.57 11.28 36.87 11.74L36.87 11.74L36.87 11.74Q37.17 12.19 37.80 12.19L37.80 12.19Z"></path></g><defs data-v-fde0c5aa=""><!----></defs><g data-v-fde0c5aa="" id="728c80a9-d878-4eb0-b1ed-67757cbe51d8" stroke="none" fill="#ffffff" transform="matrix(1.4962796800990839,0,0,1.4962796800990839,75.87954166101885,32.51860516691333)"><path d="M75.713 5H23.354c-4.481 0-8.114 3.697-8.114 8.184v73.699a8.115 8.115 0 0 0 8.12 8.118h52.359a8.115 8.115 0 0 0 8.114-8.118V13.118A8.116 8.116 0 0 0 75.713 5zm.006 82.782H23.36a.904.904 0 0 1-.905-.9V13.184c0-.491.404-.966.9-.966h52.359c.503 0 .905.409.905.9v73.699c0 .49-.405.965-.9.965z"></path></g><!----></svg>